<?xml version="1.0" encoding="UTF-8"?>
<svg width="16px" height="16px" viewBox="0 0 16 16" version="1.1" xmlns="http://www.w3.org/2000/svg" xmlns:xlink="http://www.w3.org/1999/xlink">
    <title>Slice</title>
    <g id="LOGO" stroke="none" stroke-width="1" fill="none" fill-rule="evenodd">
        <g id="Group">
            <path d="M3.39,12 L4,10.05 L5.72,10.05 L5.11,12 L5.82,12 L6.43,10.05 L7.64,10.05 L7.64,9.39 L6.63,9.39 L7.12,7.82 L8.34,7.82 L8.34,7.16 L7.33,7.16 L7.94,5.2 L7.22,5.2 L6.61,7.16 L4.9,7.16 L5.51,5.2 L4.79,5.2 L4.18,7.16 L2.98,7.16 L2.98,7.82 L3.98,7.82 L3.49,9.39 L2.28,9.39 L2.28,10.05 L3.29,10.05 L2.68,12 L3.39,12 Z M5.92,9.39 L4.2,9.39 L4.69,7.82 L6.41,7.82 L5.92,9.39 Z M9.77,12 L10.38,10.05 L12.1,10.05 L11.49,12 L12.2,12 L12.81,10.05 L14.02,10.05 L14.02,9.39 L13.01,9.39 L13.5,7.82 L14.72,7.82 L14.72,7.16 L13.71,7.16 L14.32,5.2 L13.6,5.2 L12.99,7.16 L11.28,7.16 L11.89,5.2 L11.17,5.2 L10.56,7.16 L9.36,7.16 L9.36,7.82 L10.36,7.82 L9.87,9.39 L8.66,9.39 L8.66,10.05 L9.67,10.05 L9.06,12 L9.77,12 Z M12.3,9.39 L10.58,9.39 L11.07,7.82 L12.79,7.82 L12.3,9.39 Z" id="##" fill="#004B9C" fill-rule="nonzero"></path>
        </g>
    </g>
</svg>