<?xml version="1.0" encoding="UTF-8"?>
<svg width="16px" height="16px" viewBox="0 0 16 16" version="1.1" xmlns="http://www.w3.org/2000/svg" xmlns:xlink="http://www.w3.org/1999/xlink">
    <title>Slice</title>
    <g id="LOGO" stroke="none" stroke-width="1" fill="none" fill-rule="evenodd">
        <g id="ID" fill="#63142A" fill-rule="nonzero">
            <path d="M5.405,12 L5.405,5.2 L4.205,5.2 L4.205,12 L5.405,12 Z M9.585,12 C10.3983333,12 11.0183333,11.7733333 11.445,11.32 C11.8716667,10.8666667 12.085,10.1966667 12.085,9.31 L12.085,9.31 L12.085,7.88 C12.085,7 11.8716667,6.33333333 11.445,5.88 C11.0183333,5.42666667 10.3983333,5.2 9.585,5.2 L9.585,5.2 L7.285,5.2 L7.285,12 L9.585,12 Z M9.535,10.85 L8.485,10.85 L8.485,6.35 L9.535,6.35 C10.0083333,6.35 10.3466667,6.46666667 10.55,6.7 C10.7533333,6.93333333 10.855,7.32666667 10.855,7.88 L10.855,7.88 L10.855,9.31 C10.855,9.87 10.7533333,10.2666667 10.55,10.5 C10.3466667,10.7333333 10.0083333,10.85 9.535,10.85 L9.535,10.85 Z"></path>
        </g>
    </g>
</svg>